<svg width="1440" height="3190" viewBox="0 0 1440 3190" fill="none" xmlns="http://www.w3.org/2000/svg">
<mask id="mask0_216_170" style="mask-type:alpha" maskUnits="userSpaceOnUse" x="0" y="0" width="1440" height="3190">
<rect width="1440" height="3190" fill="#D9D9D9"/>
</mask>
<g mask="url(#mask0_216_170)">
<path fill-rule="evenodd" clip-rule="evenodd" d="M109.49 321.714V321.714L109.859 323.687L110.277 325.671L110.743 327.667L111.256 329.677L111.816 331.703L112.419 333.748L113.064 335.812L113.749 337.899L114.471 340.009L115.228 342.143L116.017 344.304L116.835 346.493L117.679 348.71L118.546 350.956L119.431 353.233L120.333 355.541L121.248 357.881L122.172 360.253L123.103 362.657L124.037 365.094L124.971 367.563L125.901 370.065L126.824 372.599L127.737 375.164L128.636 377.761L129.518 380.388L130.38 383.044L131.218 385.729L132.029 388.441L132.81 391.179L133.557 393.942L134.268 396.727L134.94 399.535L135.569 402.362L136.153 405.207L136.689 408.068L137.174 410.942L137.607 413.829L137.985 416.726L138.307 419.63L138.57 422.54L138.772 425.453L138.912 428.367L138.988 431.279L139 434.188L138.945 437.09L138.823 439.984L138.633 442.867L138.374 445.737L138.045 448.59L137.646 451.426L137.176 454.242L136.636 457.034L136.024 459.802L135.343 462.543L134.591 465.255L133.769 467.935L132.879 470.583L131.919 473.196L130.893 475.773L129.8 478.311L128.642 480.81L127.42 483.269L126.135 485.685L124.79 488.058L123.386 490.388L121.924 492.673L120.407 494.912L118.837 497.106L117.214 499.254L115.543 501.355L113.824 503.411L112.061 505.42L110.254 507.384L108.408 509.302L106.522 511.175L104.601 513.005L102.647 514.791L100.66 516.535L98.6451 518.238L96.6027 519.901L94.5355 521.525L92.4455 523.112L90.3347 524.663L88.2052 526.18L86.0587 527.663L83.897 529.116L81.7219 530.539L79.5349 531.934L77.3375 533.303L75.1311 534.648L72.917 535.969L70.6962 537.269L68.4699 538.55L66.2389 539.813L64.0041 541.059L61.7661 542.289L59.5255 543.506L57.2828 544.71L55.0382 545.902L52.792 547.084L50.5444 548.255L48.2953 549.418L46.0447 550.572L43.7925 551.717L41.5383 552.855L39.2819 553.985L37.0229 555.107L34.7609 556.221L32.4953 557.327L30.2257 558.423L27.9516 559.509L25.6722 560.585L23.3872 561.65L21.096 562.701L18.798 563.74L16.4929 564.763L14.1803 565.771L11.8595 566.762L9.53036 567.734L7.19245 568.687L4.84548 569.618L2.48918 570.527L0.123327 571.412L-2.25223 572.271L-4.6376 573.103L-7.03283 573.905L-9.43791 574.678L-11.8527 575.418L-14.2772 576.124L-16.7111 576.796L-19.1542 577.431L-21.6061 578.028L-24.0663 578.587L-26.5346 579.105L-29.0102 579.582L-31.4928 580.018L-33.9816 580.412L-36.476 580.763L-38.9753 581.071L-41.479 581.335L-43.9862 581.557L-46.4964 581.734L-49.0087 581.867L-51.5226 581.956L-54.0372 582L-56.5518 581.999L-59.0658 581.953L-61.5783 581.861L-64.0886 581.725L-66.596 581.542L-69.0996 581.315L-71.5987 581.042L-74.0926 580.723L-76.5806 580.36L-79.0618 579.952L-81.5355 579.5L-84.0012 579.004L-86.458 578.465L-88.9052 577.883L-91.3424 577.258L-93.7689 576.593L-96.184 575.888L-98.5874 575.143L-100.978 574.36L-103.357 573.539L-105.722 572.683L-108.074 571.793L-110.412 570.869L-112.737 569.913L-115.047 568.927L-117.343 567.912L-119.626 566.87L-121.894 565.803L-124.148 564.712L-126.389 563.599L-128.617 562.466L-130.831 561.314L-133.033 560.146L-135.223 558.962L-137.402 557.766L-139.57 556.558L-141.727 555.34L-143.875 554.114L-146.015 552.881L-148.147 551.644L-150.272 550.402L-152.391 549.159L-154.505 547.915L-156.615 546.671L-158.723 545.428L-160.828 544.187L-162.933 542.95L-165.037 541.717L-167.143 540.488L-169.251 539.264L-171.362 538.045L-173.477 536.832L-175.596 535.624L-177.721 534.421L-179.853 533.223L-181.991 532.029L-184.137 530.84L-186.29 529.653L-188.452 528.468L-190.622 527.285L-192.801 526.101L-194.988 524.916L-197.183 523.728L-199.387 522.536L-201.598 521.338L-203.816 520.131L-206.04 518.915L-208.27 517.687L-210.504 516.446L-212.742 515.189L-214.982 513.915L-217.222 512.621L-219.462 511.305L-221.699 509.966L-223.932 508.6L-226.158 507.207L-228.377 505.785L-230.585 504.33L-232.781 502.842L-234.962 501.319L-237.125 499.759L-239.269 498.159L-241.391 496.52L-243.487 494.84L-245.557 493.116L-247.597 491.349L-249.605 489.538L-251.578 487.682L-253.515 485.78L-255.412 483.833L-257.269 481.84L-259.083 479.802L-260.853 477.719L-262.577 475.591L-264.252 473.419L-265.879 471.205L-267.455 468.948L-268.979 466.649L-270.449 464.31L-271.864 461.931L-273.224 459.514L-274.527 457.06L-275.772 454.57L-276.959 452.046L-278.087 449.49L-279.155 446.902L-280.163 444.285L-281.111 441.64L-281.999 438.969L-282.826 436.274L-283.595 433.556L-284.303 430.819L-284.954 428.063L-285.546 425.29L-286.081 422.503L-286.561 419.704L-286.986 416.894L-287.359 414.075L-287.68 411.25L-287.951 408.42L-288.175 405.586L-288.353 402.752L-288.487 399.918L-288.581 397.086L-288.636 394.258L-288.655 391.435L-288.641 388.618L-288.596 385.809L-288.523 383.009L-288.426 380.218L-288.306 377.439L-288.168 374.67L-288.013 371.914L-287.846 369.171L-287.668 366.44L-287.484 363.723L-287.296 361.018L-287.106 358.328L-286.919 355.65L-286.736 352.985L-286.559 350.332L-286.393 347.69L-286.239 345.06L-286.099 342.44L-285.975 339.829L-285.87 337.226L-285.785 334.631L-285.722 332.041L-285.682 329.456L-285.666 326.874L-285.676 324.293L-285.711 321.714L-285.773 319.133L-285.862 316.549L-285.977 313.961L-286.119 311.368L-286.287 308.767L-286.479 306.159L-286.696 303.54L-286.936 300.91L-287.197 298.267L-287.478 295.611L-287.776 292.941L-288.089 290.255L-288.416 287.552L-288.752 284.832L-289.097 282.095L-289.446 279.34L-289.796 276.566L-290.145 273.774L-290.49 270.964L-290.826 268.136L-291.15 265.29L-291.46 262.426L-291.751 259.547L-292.02 256.651L-292.263 253.742L-292.478 250.819L-292.66 247.883L-292.807 244.938L-292.914 241.983L-292.98 239.022L-293 236.055L-292.973 233.084L-292.894 230.112L-292.763 227.141L-292.577 224.173L-292.333 221.209L-292.031 218.253L-291.668 215.306L-291.243 212.37L-290.756 209.448L-290.205 206.541L-289.59 203.651L-288.911 200.782L-288.165 197.934L-287.354 195.11L-286.477 192.312L-285.533 189.543L-284.522 186.804L-283.445 184.098L-282.3 181.427L-281.089 178.792L-279.811 176.197L-278.467 173.644L-277.057 171.133L-275.582 168.668L-274.042 166.25L-272.437 163.881L-270.77 161.563L-269.04 159.299L-267.249 157.089L-265.398 154.935L-263.488 152.84L-261.52 150.804L-259.496 148.829L-257.417 146.916L-255.284 145.068L-253.1 143.284L-250.866 141.566L-248.583 139.915L-246.254 138.332L-243.88 136.817L-241.464 135.372L-239.008 133.997L-236.513 132.692L-233.981 131.458L-231.415 130.295L-228.817 129.203L-226.19 128.182L-223.534 127.232L-220.854 126.352L-218.15 125.543L-215.425 124.804L-212.682 124.134L-209.922 123.533L-207.149 122.999L-204.363 122.533L-201.568 122.132L-198.765 121.796L-195.958 121.525L-193.147 121.315L-190.335 121.167L-187.524 121.078L-184.716 121.048L-181.912 121.074L-179.116 121.155L-176.328 121.29L-173.55 121.476L-170.784 121.711L-168.032 121.995L-165.295 122.325L-162.574 122.699L-159.871 123.116L-157.187 123.572L-154.524 124.068L-151.882 124.599L-149.262 125.166L-146.666 125.764L-144.095 126.394L-141.548 127.052L-139.028 127.737L-136.534 128.447L-134.067 129.18L-131.628 129.933L-129.217 130.706L-126.836 131.495L-124.483 132.297L-122.16 133.111L-119.868 133.932L-117.606 134.759L-115.375 135.587L-113.176 136.414L-111.007 137.236L-108.87 138.05L-106.764 138.853L-104.689 139.64L-102.645 140.409L-100.63 141.155L-98.6459 141.877L-96.6905 142.568L-94.7631 143.228L-92.8631 143.851L-90.9894 144.434L-89.1408 144.974L-87.316 145.468L-85.5137 145.912L-83.7323 146.302L-81.9702 146.635L-80.2258 146.908L-78.497 147.117L-76.782 147.259L-75.0786 147.332L-73.3844 147.332L-71.6972 147.258L-70.0146 147.108L-68.3339 146.88L-66.6525 146.573L-64.968 146.187L-63.2774 145.722L-61.5783 145.176L-59.8679 144.552L-58.1435 143.849L-56.4025 143.069L-54.6424 142.213L-52.8606 141.283L-51.0548 140.282L-49.2224 139.212L-47.3615 138.076L-45.4699 136.878L-43.5455 135.62L-41.5867 134.307L-39.5917 132.944L-37.5592 131.534L-35.4877 130.082L-33.3763 128.593L-31.224 127.072L-29.0301 125.525L-26.7943 123.957L-24.516 122.373L-22.1955 120.779L-19.8328 119.181L-17.4283 117.585L-14.9827 115.997L-12.4967 114.423L-9.97153 112.868L-7.40839 111.338L-4.80876 109.84L-2.17433 108.379L0.492999 106.96L3.19117 105.59L5.91791 104.273L8.67078 103.016L11.4473 101.822L14.2445 100.697L17.0598 99.6457L19.89 98.6723L22.7321 97.7809L25.5829 96.9755L28.4391 96.2597L31.2974 95.6368L34.1543 95.11L37.0066 94.6819L39.8507 94.3549L42.6832 94.1311L45.5007 94.0124L48.2999 94L51.0773 94.0952L53.8298 94.2986L56.5541 94.6108L59.2472 95.0319L61.906 95.5615L64.5278 96.1993L67.1096 96.9443L69.6491 97.7954L72.1438 98.7512L74.5914 99.81L76.9898 100.97L79.3373 102.228L81.632 103.583L83.8725 105.031L86.0576 106.57L88.1861 108.196L90.2571 109.907L92.2699 111.699L94.2239 113.568L96.1183 115.513L97.9529 117.528L99.7273 119.611L101.441 121.76L103.094 123.969L104.687 126.237L106.219 128.56L107.69 130.935L109.102 133.359L110.453 135.829L111.745 138.341L112.977 140.894L114.151 143.484L115.266 146.108L116.323 148.764L117.324 151.45L118.267 154.162L119.154 156.899L119.985 159.658L120.76 162.437L121.48 165.236L122.146 168.05L122.756 170.88L123.311 173.723L123.811 176.578L124.257 179.444L124.648 182.319L124.984 185.202L125.267 188.09L125.496 190.982L125.672 193.878L125.796 196.774L125.868 199.669L125.89 202.562L125.862 205.451L125.786 208.334L125.663 211.21L125.494 214.077L125.281 216.933L125.025 219.776L124.729 222.605L124.394 225.419L124.022 228.216L123.615 230.994L123.175 233.752L122.706 236.489L122.209 239.203L121.686 241.894L121.141 244.559L120.576 247.199L119.993 249.811L119.396 252.396L118.788 254.952L118.172 257.479L117.549 259.977L116.925 262.444L116.301 264.882L115.68 267.288L115.066 269.665L114.462 272.011L113.87 274.327L113.295 276.613L112.738 278.87L112.202 281.099L111.691 283.3L111.207 285.474L110.752 287.622L110.33 289.746L109.943 291.846L109.593 293.924L109.282 295.982L109.012 298.021L108.785 300.043L108.603 302.049L108.468 304.042L108.38 306.024L108.341 307.996L108.352 309.961L108.414 311.92L108.526 313.876L108.69 315.831L108.906 317.788L109.173 319.748L109.49 321.714" fill="black"/>
<path fill-rule="evenodd" clip-rule="evenodd" d="M1689.57 3031.1V3031.1L1691.05 3033.87L1692.53 3036.69L1694 3039.55L1695.46 3042.45L1696.92 3045.39L1698.37 3048.38L1699.81 3051.41L1701.25 3054.49L1702.67 3057.62L1704.1 3060.79L1705.51 3064.01L1706.91 3067.29L1708.3 3070.61L1709.68 3073.99L1711.04 3077.41L1712.38 3080.89L1713.69 3084.42L1714.98 3088L1716.23 3091.63L1717.44 3095.31L1718.61 3099.04L1719.74 3102.82L1720.81 3106.64L1721.83 3110.5L1722.79 3114.41L1723.69 3118.36L1724.53 3122.35L1725.29 3126.37L1725.99 3130.43L1726.61 3134.53L1727.15 3138.65L1727.61 3142.8L1727.99 3146.98L1728.29 3151.18L1728.5 3155.4L1728.62 3159.64L1728.65 3163.89L1728.58 3168.15L1728.41 3172.42L1728.14 3176.69L1727.77 3180.96L1727.29 3185.22L1726.69 3189.47L1725.98 3193.7L1725.15 3197.9L1724.2 3202.08L1723.13 3206.22L1721.92 3210.31L1720.58 3214.35L1719.11 3218.34L1717.49 3222.26L1715.74 3226.1L1713.85 3229.86L1711.81 3233.53L1709.63 3237.11L1707.31 3240.57L1704.84 3243.92L1702.22 3247.15L1699.46 3250.25L1696.56 3253.21L1693.53 3256.03L1690.35 3258.69L1687.05 3261.2L1683.61 3263.55L1680.06 3265.73L1676.38 3267.74L1672.6 3269.57L1668.7 3271.22L1664.71 3272.69L1660.63 3273.98L1656.47 3275.09L1652.22 3276.01L1647.91 3276.75L1643.54 3277.31L1639.12 3277.68L1634.65 3277.87L1630.14 3277.89L1625.61 3277.73L1621.05 3277.4L1616.49 3276.91L1611.91 3276.24L1607.34 3275.42L1602.78 3274.44L1598.23 3273.31L1593.7 3272.04L1589.2 3270.61L1584.73 3269.05L1580.3 3267.36L1575.92 3265.53L1571.58 3263.59L1567.3 3261.52L1563.07 3259.34L1558.91 3257.06L1554.82 3254.69L1550.8 3252.22L1546.86 3249.68L1542.99 3247.07L1539.22 3244.41L1535.52 3241.69L1531.91 3238.93L1528.4 3236.13L1524.97 3233.32L1521.63 3230.48L1518.39 3227.64L1515.24 3224.81L1512.18 3221.98L1509.2 3219.17L1506.32 3216.38L1503.52 3213.62L1500.81 3210.89L1498.18 3208.21L1495.63 3205.56L1493.15 3202.97L1490.75 3200.43L1488.43 3197.94L1486.17 3195.51L1483.97 3193.15L1481.84 3190.84L1479.77 3188.61L1477.74 3186.45L1475.77 3184.36L1473.85 3182.35L1471.97 3180.42L1470.13 3178.57L1468.32 3176.81L1466.54 3175.13L1464.79 3173.54L1463.06 3172.04L1461.35 3170.64L1459.64 3169.33L1457.95 3168.12L1456.25 3167.01L1454.55 3166L1452.85 3165.09L1451.12 3164.29L1449.38 3163.59L1447.62 3162.99L1445.82 3162.5L1443.99 3162.12L1442.12 3161.83L1440.2 3161.65L1438.24 3161.57L1436.21 3161.58L1434.13 3161.69L1431.99 3161.89L1429.78 3162.18L1427.5 3162.55L1425.14 3163L1422.71 3163.53L1420.19 3164.12L1417.6 3164.78L1414.92 3165.49L1412.15 3166.25L1409.3 3167.06L1406.36 3167.9L1403.33 3168.77L1400.21 3169.67L1397.01 3170.59L1393.71 3171.52L1390.33 3172.45L1386.86 3173.38L1383.31 3174.3L1379.67 3175.2L1375.95 3176.09L1372.15 3176.94L1368.27 3177.77L1364.32 3178.55L1360.3 3179.28L1356.21 3179.96L1352.06 3180.58L1347.85 3181.13L1343.59 3181.61L1339.29 3182L1334.96 3182.31L1330.6 3182.51L1326.23 3182.6L1321.85 3182.58L1317.49 3182.43L1313.14 3182.15L1308.84 3181.73L1304.58 3181.16L1300.39 3180.43L1296.28 3179.55L1292.27 3178.5L1288.36 3177.28L1284.58 3175.9L1280.94 3174.34L1277.44 3172.62L1274.11 3170.72L1270.95 3168.66L1267.98 3166.44L1265.2 3164.05L1262.62 3161.51L1260.26 3158.82L1258.11 3155.99L1256.18 3153.03L1254.48 3149.94L1253 3146.74L1251.75 3143.43L1250.72 3140.03L1249.92 3136.54L1249.33 3132.98L1248.95 3129.36L1248.78 3125.68L1248.8 3121.97L1249.01 3118.23L1249.39 3114.47L1249.93 3110.7L1250.61 3106.93L1251.43 3103.17L1252.37 3099.43L1253.41 3095.72L1254.54 3092.04L1255.73 3088.41L1256.98 3084.81L1258.26 3081.26L1259.57 3077.77L1260.87 3074.33L1262.17 3070.94L1263.44 3067.61L1264.66 3064.34L1265.84 3061.12L1266.94 3057.95L1267.97 3054.83L1268.9 3051.75L1269.74 3048.72L1270.47 3045.72L1271.08 3042.76L1271.58 3039.82L1271.96 3036.9L1272.21 3034L1272.33 3031.1L1272.33 3028.2L1272.2 3025.3L1271.94 3022.39L1271.57 3019.46L1271.07 3016.51L1270.47 3013.53L1269.77 3010.52L1268.96 3007.48L1268.06 3004.38L1267.09 3001.25L1266.04 2998.06L1264.92 2994.83L1263.76 2991.54L1262.55 2988.19L1261.31 2984.79L1260.05 2981.33L1258.79 2977.81L1257.53 2974.24L1256.3 2970.62L1255.11 2966.94L1253.96 2963.23L1252.88 2959.47L1251.87 2955.67L1250.95 2951.84L1250.13 2947.99L1249.42 2944.12L1248.84 2940.24L1248.41 2936.37L1248.12 2932.5L1248 2928.65L1248.05 2924.83L1248.29 2921.05L1248.72 2917.32L1249.36 2913.65L1250.19 2910.06L1251.24 2906.55L1252.5 2903.13L1253.98 2899.82L1255.67 2896.63L1257.57 2893.55L1259.68 2890.61L1261.99 2887.81L1264.5 2885.15L1267.21 2882.64L1270.09 2880.28L1273.15 2878.09L1276.37 2876.05L1279.73 2874.17L1283.24 2872.46L1286.87 2870.9L1290.61 2869.5L1294.45 2868.26L1298.38 2867.16L1302.37 2866.2L1306.41 2865.38L1310.49 2864.69L1314.6 2864.11L1318.71 2863.64L1322.82 2863.27L1326.91 2862.97L1330.97 2862.75L1334.99 2862.59L1338.95 2862.46L1342.84 2862.36L1346.66 2862.28L1350.4 2862.19L1354.04 2862.08L1357.58 2861.94L1361.01 2861.75L1364.34 2861.49L1367.55 2861.15L1370.65 2860.72L1373.64 2860.19L1376.5 2859.53L1379.26 2858.74L1381.91 2857.81L1384.45 2856.73L1386.89 2855.5L1389.23 2854.09L1391.49 2852.52L1393.67 2850.78L1395.79 2848.86L1397.84 2846.77L1399.84 2844.51L1401.81 2842.08L1403.74 2839.49L1405.67 2836.75L1407.58 2833.86L1409.5 2830.84L1411.44 2827.7L1413.41 2824.45L1415.42 2821.11L1417.47 2817.7L1419.58 2814.22L1421.75 2810.71L1423.99 2807.16L1426.31 2803.61L1428.71 2800.05L1431.19 2796.51L1433.76 2792.99L1436.41 2789.5L1439.15 2786.05L1441.97 2782.64L1444.89 2779.29L1447.88 2775.98L1450.97 2772.74L1454.13 2769.56L1457.39 2766.45L1460.72 2763.41L1464.13 2760.44L1467.62 2757.56L1471.19 2754.77L1474.83 2752.07L1478.54 2749.46L1482.32 2746.96L1486.17 2744.57L1490.08 2742.29L1494.05 2740.13L1498.08 2738.1L1502.16 2736.2L1506.28 2734.44L1510.46 2732.83L1514.66 2731.37L1518.91 2730.08L1523.17 2728.95L1527.47 2727.99L1531.77 2727.22L1536.08 2726.62L1540.4 2726.22L1544.71 2726.01L1549.01 2726L1553.28 2726.19L1557.53 2726.59L1561.75 2727.19L1565.92 2728L1570.04 2729.01L1574.11 2730.24L1578.11 2731.67L1582.04 2733.3L1585.89 2735.13L1589.66 2737.17L1593.33 2739.39L1596.92 2741.81L1600.4 2744.4L1603.77 2747.17L1607.04 2750.11L1610.19 2753.21L1613.23 2756.47L1616.14 2759.87L1618.93 2763.4L1621.6 2767.06L1624.15 2770.84L1626.57 2774.73L1628.86 2778.72L1631.02 2782.8L1633.06 2786.97L1634.97 2791.21L1636.75 2795.51L1638.41 2799.88L1639.94 2804.3L1641.35 2808.77L1642.63 2813.27L1643.79 2817.81L1644.83 2822.38L1645.75 2826.97L1646.55 2831.58L1647.23 2836.2L1647.79 2840.82L1648.24 2845.45L1648.58 2850.07L1648.81 2854.67L1648.94 2859.26L1648.97 2863.82L1648.92 2868.35L1648.78 2872.83L1648.57 2877.27L1648.29 2881.64L1647.96 2885.95L1647.59 2890.18L1647.19 2894.33L1646.76 2898.39L1646.33 2902.35L1645.91 2906.22L1645.49 2909.98L1645.11 2913.64L1644.75 2917.19L1644.44 2920.63L1644.18 2923.96L1643.98 2927.19L1643.85 2930.31L1643.78 2933.33L1643.79 2936.26L1643.88 2939.09L1644.05 2941.83L1644.31 2944.5L1644.64 2947.08L1645.06 2949.59L1645.57 2952.04L1646.15 2954.44L1646.82 2956.77L1647.56 2959.07L1648.38 2961.32L1649.27 2963.54L1650.22 2965.73L1651.24 2967.9L1652.32 2970.06L1653.46 2972.2L1654.65 2974.33L1655.88 2976.46L1657.16 2978.6L1658.48 2980.73L1659.83 2982.88L1661.21 2985.04L1662.62 2987.22L1664.05 2989.41L1665.51 2991.62L1666.98 2993.86L1668.46 2996.12L1669.96 2998.41L1671.46 3000.72L1672.97 3003.07L1674.49 3005.44L1676 3007.85L1677.52 3010.29L1679.04 3012.76L1680.56 3015.27L1682.07 3017.81L1683.58 3020.39L1685.09 3023.01L1686.59 3025.67L1688.08 3028.36L1689.57 3031.1" fill="black"/>
<path fill-rule="evenodd" clip-rule="evenodd" d="M1795.56 606.974V606.974L1794.9 609.726L1794.15 612.461L1793.32 615.177L1792.4 617.873L1791.41 620.546L1790.35 623.194L1789.21 625.816L1788 628.409L1786.72 630.973L1785.37 633.507L1783.96 636.008L1782.5 638.475L1780.98 640.908L1779.41 643.307L1777.79 645.67L1776.14 647.999L1774.45 650.293L1772.74 652.553L1771.01 654.78L1769.27 656.977L1767.53 659.145L1765.8 661.285L1764.07 663.402L1762.37 665.498L1760.69 667.577L1759.05 669.642L1757.45 671.697L1755.9 673.747L1754.41 675.797L1752.98 677.851L1751.61 679.915L1750.32 681.993L1749.11 684.09L1747.98 686.213L1746.93 688.366L1745.97 690.555L1745.1 692.784L1744.32 695.06L1743.63 697.386L1743.03 699.768L1742.53 702.21L1742.11 704.717L1741.78 707.294L1741.54 709.943L1741.38 712.668L1741.31 715.474L1741.31 718.362L1741.38 721.336L1741.52 724.396L1741.72 727.546L1741.97 730.786L1742.28 734.116L1742.63 737.538L1743.02 741.05L1743.44 744.652L1743.88 748.342L1744.33 752.119L1744.79 755.98L1745.25 759.922L1745.71 763.942L1746.14 768.035L1746.55 772.198L1746.92 776.425L1747.26 780.711L1747.54 785.051L1747.77 789.437L1747.93 793.864L1748.03 798.324L1748.04 802.81L1747.97 807.314L1747.8 811.828L1747.54 816.345L1747.18 820.856L1746.71 825.352L1746.12 829.826L1745.42 834.267L1744.59 838.668L1743.65 843.021L1742.57 847.315L1741.37 851.544L1740.03 855.698L1738.56 859.769L1736.96 863.75L1735.23 867.632L1733.37 871.409L1731.37 875.074L1729.24 878.619L1726.99 882.039L1724.61 885.328L1722.11 888.48L1719.49 891.492L1716.75 894.357L1713.9 897.074L1710.94 899.638L1707.88 902.047L1704.73 904.3L1701.48 906.394L1698.14 908.329L1694.73 910.105L1691.24 911.722L1687.68 913.182L1684.05 914.485L1680.37 915.635L1676.64 916.634L1672.86 917.487L1669.05 918.199L1665.2 918.775L1661.33 919.223L1657.44 919.55L1653.54 919.763L1649.62 919.871L1645.71 919.882L1641.79 919.807L1637.88 919.654L1633.99 919.432L1630.1 919.152L1626.23 918.823L1622.38 918.454L1618.55 918.054L1614.75 917.633L1610.97 917.199L1607.21 916.76L1603.48 916.323L1599.77 915.895L1596.09 915.482L1592.42 915.09L1588.78 914.722L1585.16 914.382L1581.56 914.074L1577.97 913.802L1574.4 913.566L1570.84 913.37L1567.29 913.214L1563.75 913.1L1560.21 913.029L1556.68 913L1553.14 913.013L1549.61 913.067L1546.06 913.161L1542.52 913.293L1538.96 913.46L1535.39 913.66L1531.81 913.891L1528.21 914.147L1524.6 914.427L1520.97 914.725L1517.33 915.038L1513.66 915.361L1509.97 915.689L1506.26 916.017L1502.54 916.341L1498.79 916.654L1495.02 916.952L1491.23 917.229L1487.42 917.479L1483.6 917.698L1479.75 917.881L1475.89 918.021L1472.02 918.113L1468.14 918.153L1464.25 918.136L1460.35 918.057L1456.44 917.911L1452.53 917.695L1448.63 917.404L1444.72 917.035L1440.83 916.583L1436.94 916.046L1433.07 915.422L1429.21 914.706L1425.37 913.898L1421.56 912.995L1417.77 911.995L1414 910.898L1410.27 909.703L1406.58 908.408L1402.93 907.014L1399.31 905.52L1395.74 903.927L1392.22 902.236L1388.74 900.448L1385.32 898.563L1381.95 896.583L1378.64 894.51L1375.39 892.346L1372.2 890.093L1369.07 887.753L1366 885.329L1363 882.824L1360.06 880.24L1357.19 877.58L1354.39 874.847L1351.66 872.044L1348.99 869.175L1346.4 866.241L1343.87 863.247L1341.42 860.193L1339.04 857.082L1336.73 853.915L1334.5 850.696L1332.34 847.426L1330.26 844.106L1328.25 840.738L1326.33 837.323L1324.48 833.864L1322.72 830.362L1321.04 826.819L1319.45 823.236L1317.94 819.615L1316.52 815.958L1315.18 812.267L1313.94 808.543L1312.78 804.789L1311.71 801.006L1310.74 797.198L1309.86 793.365L1309.06 789.511L1308.36 785.638L1307.75 781.748L1307.24 777.845L1306.81 773.93L1306.47 770.006L1306.23 766.077L1306.07 762.144L1306 758.21L1306.02 754.278L1306.12 750.352L1306.3 746.432L1306.57 742.522L1306.92 738.626L1307.34 734.744L1307.84 730.88L1308.41 727.036L1309.06 723.215L1309.77 719.419L1310.55 715.65L1311.39 711.91L1312.29 708.201L1313.25 704.525L1314.27 700.885L1315.33 697.281L1316.44 693.716L1317.59 690.191L1318.79 686.707L1320.02 683.265L1321.29 679.866L1322.58 676.512L1323.91 673.203L1325.26 669.939L1326.62 666.722L1328.01 663.552L1329.41 660.428L1330.81 657.351L1332.23 654.321L1333.65 651.338L1335.07 648.401L1336.48 645.51L1337.89 642.663L1339.29 639.862L1340.68 637.104L1342.06 634.389L1343.42 631.715L1344.77 629.082L1346.09 626.488L1347.39 623.932L1348.66 621.413L1349.91 618.929L1351.13 616.477L1352.32 614.058L1353.48 611.669L1354.6 609.308L1355.7 606.974L1356.76 604.665L1357.78 602.379L1358.77 600.114L1359.73 597.869L1360.65 595.641L1361.53 593.429L1362.38 591.231L1363.19 589.046L1363.98 586.871L1364.72 584.705L1365.44 582.546L1366.12 580.393L1366.78 578.245L1367.41 576.1L1368.01 573.956L1368.59 571.814L1369.15 569.673L1369.7 567.532L1370.24 565.39L1370.77 563.249L1371.3 561.109L1371.84 558.969L1372.38 556.832L1372.94 554.697L1373.52 552.567L1374.12 550.442L1374.74 548.324L1375.4 546.216L1376.09 544.119L1376.82 542.036L1377.6 539.967L1378.42 537.916L1379.28 535.885L1380.2 533.876L1381.17 531.89L1382.19 529.931L1383.26 527.999L1384.39 526.098L1385.57 524.227L1386.81 522.39L1388.1 520.587L1389.43 518.819L1390.82 517.089L1392.26 515.397L1393.75 513.743L1395.28 512.129L1396.86 510.554L1398.47 509.019L1400.13 507.523L1401.82 506.067L1403.54 504.65L1405.29 503.27L1407.06 501.928L1408.86 500.622L1410.68 499.35L1412.52 498.11L1414.37 496.902L1416.22 495.722L1418.09 494.57L1419.95 493.442L1421.82 492.335L1423.69 491.249L1425.55 490.178L1427.4 489.122L1429.24 488.076L1431.07 487.039L1432.88 486.006L1434.68 484.975L1436.46 483.944L1438.21 482.908L1439.95 481.865L1441.67 480.813L1443.36 479.748L1445.03 478.667L1446.67 477.569L1448.29 476.45L1449.89 475.308L1451.46 474.142L1453.01 472.948L1454.54 471.726L1456.05 470.474L1457.54 469.189L1459.01 467.871L1460.46 466.519L1461.9 465.133L1463.33 463.71L1464.74 462.251L1466.14 460.756L1467.54 459.225L1468.93 457.657L1470.32 456.054L1471.7 454.416L1473.09 452.743L1474.48 451.038L1475.88 449.3L1477.28 447.531L1478.7 445.733L1480.13 443.906L1481.57 442.054L1483.03 440.177L1484.51 438.278L1486.01 436.359L1487.53 434.422L1489.07 432.469L1490.65 430.503L1492.25 428.529L1493.88 426.55L1495.54 424.571L1497.24 422.596L1498.97 420.629L1500.74 418.676L1502.55 416.742L1504.4 414.832L1506.29 412.952L1508.22 411.106L1510.18 409.3L1512.19 407.539L1514.25 405.83L1516.34 404.176L1518.47 402.583L1520.64 401.056L1522.85 399.6L1525.1 398.22L1527.38 396.92L1529.69 395.706L1532.04 394.581L1534.41 393.55L1536.81 392.618L1539.24 391.786L1541.69 391.059L1544.16 390.439L1546.64 389.929L1549.14 389.528L1551.65 389.24L1554.16 389.064L1556.68 389L1559.19 389.048L1561.71 389.207L1564.22 389.475L1566.72 389.852L1569.2 390.333L1571.67 390.918L1574.13 391.602L1576.56 392.383L1578.97 393.255L1581.36 394.217L1583.72 395.262L1586.05 396.386L1588.36 397.585L1590.63 398.853L1592.87 400.185L1595.07 401.576L1597.25 403.02L1599.39 404.512L1601.49 406.046L1603.57 407.617L1605.61 409.219L1607.61 410.846L1609.59 412.494L1611.54 414.157L1613.46 415.829L1615.35 417.507L1617.21 419.185L1619.06 420.859L1620.88 422.524L1622.68 424.177L1624.46 425.814L1626.23 427.431L1627.99 429.025L1629.74 430.593L1631.48 432.133L1633.21 433.643L1634.94 435.12L1636.67 436.563L1638.41 437.971L1640.15 439.342L1641.89 440.677L1643.65 441.975L1645.42 443.235L1647.2 444.458L1648.99 445.645L1650.81 446.796L1652.64 447.913L1654.49 448.996L1656.37 450.048L1658.26 451.07L1660.19 452.063L1662.13 453.031L1664.1 453.974L1666.1 454.896L1668.12 455.799L1670.17 456.686L1672.24 457.558L1674.35 458.419L1676.47 459.272L1678.62 460.12L1680.8 460.964L1683 461.809L1685.22 462.657L1687.46 463.511L1689.72 464.374L1692 465.248L1694.3 466.136L1696.61 467.04L1698.94 467.964L1701.27 468.908L1703.62 469.876L1705.98 470.869L1708.34 471.89L1710.71 472.939L1713.08 474.019L1715.45 475.131L1717.82 476.277L1720.19 477.457L1722.56 478.674L1724.91 479.928L1727.26 481.22L1729.61 482.551L1731.94 483.921L1734.25 485.333L1736.55 486.785L1738.84 488.28L1741.1 489.816L1743.35 491.394L1745.57 493.015L1747.77 494.678L1749.94 496.384L1752.09 498.133L1754.2 499.923L1756.29 501.756L1758.35 503.632L1760.37 505.548L1762.36 507.506L1764.31 509.505L1766.22 511.545L1768.09 513.625L1769.93 515.744L1771.72 517.902L1773.46 520.098L1775.16 522.332L1776.82 524.603L1778.42 526.91L1779.98 529.252L1781.48 531.629L1782.92 534.04L1784.31 536.483L1785.65 538.958L1786.92 541.464L1788.14 543.999L1789.29 546.563L1790.37 549.154L1791.39 551.77L1792.34 554.411L1793.22 557.076L1794.03 559.762L1794.77 562.468L1795.43 565.192L1796.01 567.933L1796.52 570.689L1796.95 573.458L1797.29 576.238L1797.56 579.028L1797.74 581.825L1797.84 584.627L1797.86 587.433L1797.79 590.239L1797.63 593.044L1797.39 595.846L1797.06 598.642L1796.65 601.43L1796.15 604.208L1795.56 606.974" fill="black"/>
<path fill-rule="evenodd" clip-rule="evenodd" d="M1645 2055.81V2055.81L1645.87 2058.12L1646.79 2060.45L1647.75 2062.81L1648.75 2065.2L1649.79 2067.62L1650.87 2070.08L1651.97 2072.58L1653.1 2075.11L1654.24 2077.69L1655.4 2080.31L1656.58 2082.97L1657.75 2085.67L1658.94 2088.42L1660.12 2091.21L1661.3 2094.05L1662.48 2096.94L1663.65 2099.88L1664.82 2102.86L1665.98 2105.9L1667.12 2108.98L1668.26 2112.12L1669.38 2115.3L1670.48 2118.54L1671.57 2121.83L1672.64 2125.18L1673.69 2128.57L1674.71 2132.03L1675.7 2135.53L1676.67 2139.08L1677.6 2142.69L1678.49 2146.35L1679.33 2150.05L1680.13 2153.81L1680.88 2157.61L1681.58 2161.45L1682.21 2165.33L1682.78 2169.25L1683.28 2173.21L1683.71 2177.2L1684.06 2181.22L1684.32 2185.26L1684.51 2189.32L1684.6 2193.4L1684.6 2197.5L1684.51 2201.6L1684.31 2205.71L1684.02 2209.81L1683.61 2213.91L1683.1 2218L1682.47 2222.07L1681.73 2226.13L1680.88 2230.15L1679.91 2234.14L1678.82 2238.1L1677.61 2242.01L1676.27 2245.87L1674.82 2249.68L1673.25 2253.43L1671.56 2257.12L1669.74 2260.73L1667.81 2264.27L1665.76 2267.74L1663.59 2271.12L1661.31 2274.41L1658.92 2277.61L1656.41 2280.71L1653.8 2283.71L1651.08 2286.61L1648.26 2289.4L1645.34 2292.08L1642.33 2294.65L1639.23 2297.1L1636.04 2299.43L1632.77 2301.65L1629.42 2303.74L1625.99 2305.71L1622.5 2307.56L1618.94 2309.28L1615.32 2310.88L1611.64 2312.35L1607.92 2313.7L1604.14 2314.93L1600.33 2316.03L1596.48 2317.01L1592.59 2317.88L1588.68 2318.62L1584.75 2319.24L1580.8 2319.75L1576.83 2320.15L1572.85 2320.43L1568.86 2320.61L1564.87 2320.67L1560.88 2320.62L1556.89 2320.45L1552.91 2320.18L1548.93 2319.79L1544.96 2319.3L1541.01 2318.69L1537.07 2317.97L1533.16 2317.14L1529.26 2316.21L1525.4 2315.16L1521.56 2314L1517.75 2312.74L1513.98 2311.37L1510.25 2309.89L1506.56 2308.32L1502.91 2306.65L1499.31 2304.88L1495.76 2303.02L1492.26 2301.07L1488.82 2299.03L1485.43 2296.91L1482.11 2294.72L1478.84 2292.45L1475.63 2290.11L1472.49 2287.71L1469.42 2285.25L1466.41 2282.73L1463.47 2280.17L1460.6 2277.56L1457.79 2274.92L1455.06 2272.24L1452.39 2269.53L1449.79 2266.8L1447.26 2264.06L1444.8 2261.3L1442.4 2258.54L1440.06 2255.78L1437.79 2253.02L1435.58 2250.27L1433.43 2247.54L1431.34 2244.82L1429.3 2242.13L1427.31 2239.47L1425.37 2236.85L1423.48 2234.25L1421.63 2231.7L1419.82 2229.19L1418.04 2226.73L1416.31 2224.32L1414.6 2221.96L1412.91 2219.65L1411.25 2217.4L1409.61 2215.2L1407.99 2213.07L1406.38 2210.99L1404.77 2208.98L1403.18 2207.02L1401.58 2205.13L1399.99 2203.29L1398.39 2201.52L1396.78 2199.8L1395.16 2198.14L1393.54 2196.54L1391.89 2194.99L1390.23 2193.49L1388.55 2192.05L1386.85 2190.65L1385.13 2189.29L1383.38 2187.98L1381.61 2186.71L1379.81 2185.47L1377.99 2184.26L1376.14 2183.08L1374.26 2181.93L1372.35 2180.8L1370.42 2179.68L1368.47 2178.56L1366.5 2177.46L1364.52 2176.34L1362.53 2175.22L1360.53 2174.08L1358.53 2172.92L1356.53 2171.73L1354.55 2170.51L1352.58 2169.26L1350.63 2167.96L1348.72 2166.61L1346.84 2165.21L1345 2163.76L1343.22 2162.25L1341.48 2160.69L1339.81 2159.06L1338.2 2157.38L1336.67 2155.63L1335.2 2153.83L1333.82 2151.96L1332.52 2150.04L1331.3 2148.07L1330.17 2146.04L1329.13 2143.96L1328.19 2141.83L1327.33 2139.66L1326.56 2137.45L1325.88 2135.21L1325.29 2132.93L1324.79 2130.62L1324.38 2128.29L1324.04 2125.95L1323.78 2123.59L1323.6 2121.21L1323.48 2118.84L1323.42 2116.46L1323.43 2114.08L1323.48 2111.71L1323.59 2109.35L1323.73 2107L1323.9 2104.66L1324.1 2102.34L1324.32 2100.04L1324.55 2097.76L1324.78 2095.5L1325.02 2093.27L1325.24 2091.06L1325.45 2088.87L1325.64 2086.71L1325.8 2084.56L1325.93 2082.44L1326.02 2080.34L1326.06 2078.26L1326.06 2076.19L1326.01 2074.14L1325.9 2072.1L1325.73 2070.06L1325.51 2068.04L1325.22 2066.01L1324.87 2063.99L1324.45 2061.96L1323.97 2059.92L1323.42 2057.87L1322.81 2055.81L1322.14 2053.73L1321.41 2051.64L1320.62 2049.51L1319.78 2047.36L1318.89 2045.18L1317.95 2042.97L1316.96 2040.73L1315.94 2038.45L1314.88 2036.12L1313.8 2033.76L1312.69 2031.36L1311.56 2028.92L1310.43 2026.43L1309.29 2023.89L1308.15 2021.32L1307.01 2018.7L1305.89 2016.03L1304.8 2013.33L1303.73 2010.58L1302.69 2007.8L1301.69 2004.97L1300.74 2002.11L1299.85 1999.22L1299.01 1996.3L1298.23 1993.35L1297.53 1990.38L1296.9 1987.39L1296.36 1984.38L1295.9 1981.36L1295.53 1978.34L1295.25 1975.31L1295.08 1972.28L1295 1969.25L1295.03 1966.24L1295.17 1963.24L1295.41 1960.27L1295.77 1957.31L1296.23 1954.38L1296.81 1951.49L1297.49 1948.63L1298.28 1945.81L1299.18 1943.03L1300.18 1940.29L1301.28 1937.6L1302.48 1934.96L1303.77 1932.36L1305.15 1929.82L1306.62 1927.33L1308.16 1924.89L1309.78 1922.5L1311.47 1920.15L1313.22 1917.86L1315.03 1915.61L1316.9 1913.4L1318.81 1911.24L1320.76 1909.11L1322.75 1907.02L1324.78 1904.96L1326.83 1902.92L1328.9 1900.91L1330.99 1898.91L1333.09 1896.93L1335.2 1894.95L1337.32 1892.98L1339.44 1891L1341.56 1889.02L1343.68 1887.03L1345.8 1885.02L1347.91 1882.99L1350.02 1880.94L1352.12 1878.86L1354.22 1876.74L1356.31 1874.59L1358.4 1872.41L1360.49 1870.18L1362.57 1867.91L1364.66 1865.59L1366.75 1863.23L1368.85 1860.83L1370.96 1858.38L1373.08 1855.88L1375.22 1853.35L1377.38 1850.77L1379.56 1848.16L1381.77 1845.51L1384.01 1842.83L1386.29 1840.12L1388.61 1837.4L1390.97 1834.65L1393.37 1831.89L1395.82 1829.13L1398.32 1826.36L1400.87 1823.58L1403.48 1820.82L1406.14 1818.05L1408.86 1815.3L1411.63 1812.57L1414.47 1809.86L1417.36 1807.17L1420.32 1804.5L1423.33 1801.87L1426.41 1799.28L1429.55 1796.72L1432.75 1794.21L1436.01 1791.75L1439.33 1789.34L1442.71 1786.99L1446.15 1784.7L1449.65 1782.48L1453.2 1780.33L1456.81 1778.26L1460.48 1776.26L1464.19 1774.35L1467.96 1772.53L1471.77 1770.81L1475.63 1769.18L1479.54 1767.66L1483.48 1766.24L1487.46 1764.94L1491.47 1763.76L1495.51 1762.7L1499.58 1761.76L1503.67 1760.96L1507.77 1760.29L1511.89 1759.75L1516.02 1759.36L1520.16 1759.11L1524.29 1759L1528.42 1759.04L1532.54 1759.23L1536.65 1759.57L1540.73 1760.07L1544.79 1760.71L1548.82 1761.51L1552.82 1762.46L1556.78 1763.56L1560.69 1764.81L1564.55 1766.21L1568.37 1767.76L1572.12 1769.45L1575.81 1771.28L1579.44 1773.25L1583 1775.35L1586.49 1777.59L1589.9 1779.95L1593.23 1782.43L1596.48 1785.04L1599.65 1787.75L1602.74 1790.57L1605.73 1793.5L1608.64 1796.52L1611.45 1799.63L1614.18 1802.83L1616.81 1806.1L1619.36 1809.45L1621.81 1812.87L1624.17 1816.35L1626.43 1819.89L1628.61 1823.48L1630.7 1827.11L1632.69 1830.79L1634.6 1834.5L1636.43 1838.24L1638.17 1842L1639.82 1845.79L1641.4 1849.59L1642.89 1853.41L1644.31 1857.24L1645.64 1861.07L1646.89 1864.92L1648.07 1868.77L1649.16 1872.62L1650.17 1876.48L1651.1 1880.35L1651.95 1884.21L1652.71 1888.08L1653.38 1891.95L1653.98 1895.82L1654.48 1899.68L1654.9 1903.55L1655.23 1907.4L1655.47 1911.26L1655.63 1915.1L1655.7 1918.93L1655.7 1922.74L1655.61 1926.54L1655.45 1930.31L1655.22 1934.05L1654.92 1937.77L1654.56 1941.45L1654.14 1945.09L1653.67 1948.69L1653.14 1952.26L1652.58 1955.77L1651.97 1959.24L1651.33 1962.66L1650.67 1966.03L1649.98 1969.35L1649.27 1972.61L1648.55 1975.81L1647.83 1978.96L1647.1 1982.05L1646.38 1985.09L1645.67 1988.07L1644.97 1990.99L1644.29 1993.85L1643.64 1996.66L1643.02 1999.41L1642.44 2002.11L1641.89 2004.76L1641.39 2007.36L1640.93 2009.92L1640.53 2012.43L1640.18 2014.89L1639.89 2017.32L1639.66 2019.71L1639.49 2022.07L1639.39 2024.39L1639.35 2026.69L1639.38 2028.97L1639.48 2031.23L1639.64 2033.47L1639.88 2035.7L1640.19 2037.92L1640.56 2040.13L1641.01 2042.35L1641.52 2044.56L1642.09 2046.79L1642.73 2049.02L1643.43 2051.27L1644.19 2053.53L1645 2055.81" fill="#F1D302"/>
<path fill-rule="evenodd" clip-rule="evenodd" d="M188.134 1516.41V1516.41L188.483 1520.08L188.75 1523.76L188.936 1527.45L189.04 1531.14L189.062 1534.84L189.002 1538.53L188.86 1542.23L188.635 1545.92L188.328 1549.6L187.94 1553.28L187.47 1556.95L186.919 1560.61L186.289 1564.25L185.58 1567.88L184.793 1571.5L183.929 1575.09L182.989 1578.67L181.974 1582.22L180.887 1585.76L179.728 1589.26L178.5 1592.75L177.203 1596.2L175.839 1599.63L174.411 1603.03L172.92 1606.4L171.368 1609.74L169.757 1613.05L168.089 1616.32L166.366 1619.57L164.59 1622.78L162.762 1625.95L160.885 1629.09L158.961 1632.2L156.991 1635.27L154.977 1638.31L152.922 1641.32L150.826 1644.29L148.691 1647.22L146.519 1650.12L144.311 1652.99L142.069 1655.82L139.794 1658.62L137.487 1661.38L135.149 1664.11L132.781 1666.81L130.384 1669.47L127.959 1672.1L125.507 1674.69L123.028 1677.25L120.524 1679.78L117.995 1682.27L115.442 1684.74L112.865 1687.16L110.266 1689.56L107.644 1691.92L105 1694.25L102.334 1696.55L99.6474 1698.82L96.9397 1701.05L94.2115 1703.25L91.4628 1705.42L88.6941 1707.55L85.9055 1709.65L83.0971 1711.72L80.269 1713.76L77.4214 1715.76L74.5544 1717.72L71.6681 1719.66L68.7624 1721.55L65.8376 1723.42L62.8935 1725.24L59.9304 1727.03L56.9482 1728.78L53.9471 1730.5L50.9271 1732.18L47.8882 1733.81L44.8305 1735.41L41.7541 1736.96L38.659 1738.48L35.5452 1739.95L32.4129 1741.37L29.2623 1742.75L26.0934 1744.08L22.9065 1745.36L19.702 1746.6L16.4801 1747.78L13.2414 1748.9L9.98625 1749.98L6.71527 1750.99L3.42909 1751.95L0.128464 1752.85L-3.18582 1753.69L-6.51286 1754.46L-9.85172 1755.18L-13.2013 1755.82L-16.5605 1756.4L-19.9281 1756.92L-23.3029 1757.36L-26.6835 1757.74L-30.0684 1758.05L-33.4563 1758.28L-36.8456 1758.45L-40.2347 1758.54L-43.6221 1758.56L-47.006 1758.51L-50.3849 1758.38L-53.7569 1758.18L-57.1204 1757.9L-60.4736 1757.56L-63.8148 1757.14L-67.1423 1756.65L-70.4544 1756.08L-73.7493 1755.45L-77.0253 1754.74L-80.2808 1753.96L-83.5142 1753.12L-86.7239 1752.21L-89.9083 1751.23L-93.0659 1750.18L-96.1953 1749.08L-99.2952 1747.9L-102.364 1746.67L-105.401 1745.38L-108.404 1744.03L-111.373 1742.63L-114.306 1741.17L-117.203 1739.65L-120.063 1738.09L-122.885 1736.48L-125.668 1734.83L-128.412 1733.13L-131.116 1731.39L-133.781 1729.61L-136.405 1727.8L-138.989 1725.95L-141.533 1724.07L-144.037 1722.15L-146.501 1720.22L-148.924 1718.25L-151.309 1716.27L-153.654 1714.26L-155.961 1712.23L-158.23 1710.19L-160.462 1708.13L-162.657 1706.06L-164.816 1703.98L-166.94 1701.89L-169.03 1699.79L-171.087 1697.68L-173.111 1695.57L-175.104 1693.45L-177.066 1691.33L-178.998 1689.21L-180.901 1687.08L-182.776 1684.96L-184.624 1682.83L-186.445 1680.71L-188.24 1678.58L-190.009 1676.46L-191.754 1674.33L-193.473 1672.21L-195.169 1670.08L-196.841 1667.96L-198.488 1665.83L-200.112 1663.71L-201.712 1661.58L-203.289 1659.44L-204.841 1657.31L-206.369 1655.17L-207.872 1653.03L-209.35 1650.88L-210.802 1648.73L-212.228 1646.57L-213.628 1644.4L-214.999 1642.23L-216.342 1640.05L-217.656 1637.86L-218.939 1635.66L-220.191 1633.45L-221.411 1631.23L-222.598 1629L-223.75 1626.76L-224.868 1624.51L-225.949 1622.25L-226.993 1619.97L-227.998 1617.69L-228.964 1615.39L-229.889 1613.09L-230.774 1610.77L-231.616 1608.44L-232.415 1606.1L-233.171 1603.76L-233.882 1601.4L-234.548 1599.04L-235.169 1596.67L-235.743 1594.29L-236.271 1591.91L-236.753 1589.52L-237.188 1587.13L-237.575 1584.74L-237.916 1582.34L-238.21 1579.94L-238.457 1577.54L-238.657 1575.15L-238.812 1572.75L-238.92 1570.36L-238.982 1567.98L-239 1565.6L-238.973 1563.22L-238.903 1560.86L-238.79 1558.5L-238.635 1556.15L-238.439 1553.81L-238.202 1551.49L-237.927 1549.17L-237.614 1546.87L-237.265 1544.59L-236.879 1542.31L-236.46 1540.06L-236.009 1537.82L-235.525 1535.59L-235.012 1533.39L-234.471 1531.2L-233.903 1529.03L-233.309 1526.88L-232.692 1524.75L-232.053 1522.64L-231.393 1520.54L-230.714 1518.47L-230.018 1516.41L-229.306 1514.38L-228.582 1512.36L-227.846 1510.36L-227.1 1508.38L-226.348 1506.42L-225.589 1504.48L-224.828 1502.55L-224.065 1500.64L-223.302 1498.74L-222.542 1496.86L-221.786 1494.99L-221.036 1493.13L-220.294 1491.29L-219.562 1489.45L-218.84 1487.62L-218.132 1485.8L-217.437 1483.98L-216.757 1482.17L-216.093 1480.35L-215.447 1478.54L-214.818 1476.73L-214.209 1474.91L-213.619 1473.09L-213.048 1471.26L-212.498 1469.42L-211.968 1467.58L-211.457 1465.72L-210.967 1463.84L-210.496 1461.95L-210.045 1460.05L-209.611 1458.12L-209.196 1456.18L-208.797 1454.21L-208.413 1452.22L-208.044 1450.21L-207.688 1448.17L-207.343 1446.11L-207.007 1444.01L-206.68 1441.89L-206.359 1439.74L-206.042 1437.56L-205.728 1435.35L-205.413 1433.11L-205.096 1430.84L-204.774 1428.54L-204.445 1426.2L-204.107 1423.84L-203.757 1421.44L-203.392 1419.02L-203.01 1416.57L-202.609 1414.08L-202.186 1411.57L-201.738 1409.04L-201.263 1406.48L-200.758 1403.89L-200.221 1401.29L-199.65 1398.66L-199.041 1396.02L-198.393 1393.36L-197.703 1390.68L-196.97 1388L-196.191 1385.3L-195.364 1382.6L-194.488 1379.89L-193.56 1377.17L-192.579 1374.46L-191.544 1371.75L-190.453 1369.05L-189.305 1366.35L-188.099 1363.67L-186.834 1361L-185.509 1358.35L-184.123 1355.71L-182.676 1353.1L-181.167 1350.51L-179.597 1347.95L-177.966 1345.42L-176.272 1342.93L-174.517 1340.47L-172.701 1338.05L-170.824 1335.67L-168.887 1333.33L-166.891 1331.04L-164.836 1328.8L-162.724 1326.61L-160.556 1324.47L-158.333 1322.38L-156.055 1320.35L-153.726 1318.37L-151.345 1316.46L-148.914 1314.6L-146.436 1312.81L-143.912 1311.07L-141.343 1309.41L-138.731 1307.8L-136.079 1306.26L-133.387 1304.79L-130.658 1303.38L-127.893 1302.03L-125.094 1300.76L-122.264 1299.55L-119.404 1298.41L-116.515 1297.33L-113.6 1296.33L-110.661 1295.38L-107.698 1294.51L-104.715 1293.7L-101.712 1292.96L-98.6907 1292.28L-95.6538 1291.67L-92.6023 1291.12L-89.5377 1290.64L-86.4617 1290.22L-83.3755 1289.86L-80.2808 1289.56L-77.1789 1289.33L-74.0711 1289.16L-70.9588 1289.05L-67.8434 1289L-64.7261 1289.01L-61.6082 1289.08L-58.4909 1289.21L-55.3756 1289.4L-52.2633 1289.65L-49.1553 1289.96L-46.0526 1290.32L-42.9564 1290.74L-39.8677 1291.22L-36.7876 1291.75L-33.7169 1292.34L-30.6567 1292.97L-27.6078 1293.67L-24.571 1294.41L-21.5471 1295.2L-18.5369 1296.05L-15.541 1296.94L-12.56 1297.88L-9.59445 1298.86L-6.64493 1299.89L-3.71187 1300.97L-0.795654 1302.09L2.10338 1303.25L4.98494 1304.45L7.84882 1305.69L10.6948 1306.97L13.5229 1308.28L16.3329 1309.63L19.1248 1311.02L21.8987 1312.44L24.6547 1313.9L27.3928 1315.38L30.1133 1316.9L32.8165 1318.45L35.5025 1320.02L38.1718 1321.63L40.8247 1323.26L43.4617 1324.91L46.0833 1326.6L48.6898 1328.3L51.2819 1330.03L53.8601 1331.78L56.4251 1333.56L58.9773 1335.36L61.5174 1337.17L64.046 1339.01L66.5636 1340.87L69.0709 1342.75L71.5684 1344.65L74.0565 1346.57L76.5359 1348.5L79.0069 1350.46L81.47 1352.44L83.9255 1354.43L86.3737 1356.45L88.8149 1358.49L91.2491 1360.55L93.6766 1362.63L96.0972 1364.73L98.511 1366.85L100.918 1369L103.317 1371.17L105.709 1373.36L108.093 1375.58L110.469 1377.83L112.835 1380.1L115.191 1382.4L117.537 1384.72L119.872 1387.08L122.195 1389.46L124.504 1391.88L126.799 1394.33L129.078 1396.81L131.341 1399.32L133.586 1401.86L135.812 1404.44L138.018 1407.06L140.202 1409.7L142.363 1412.39L144.5 1415.11L146.611 1417.86L148.694 1420.65L150.748 1423.48L152.771 1426.34L154.76 1429.25L156.715 1432.18L158.632 1435.16L160.51 1438.18L162.347 1441.23L164.141 1444.31L165.889 1447.44L167.589 1450.6L169.239 1453.8L170.837 1457.03L172.381 1460.3L173.868 1463.6L175.297 1466.93L176.665 1470.3L177.971 1473.7L179.212 1477.13L180.387 1480.59L181.493 1484.07L182.529 1487.58L183.494 1491.12L184.386 1494.67L185.203 1498.25L185.945 1501.85L186.61 1505.47L187.197 1509.1L187.705 1512.75L188.134 1516.41" fill="black"/>
<path fill-rule="evenodd" clip-rule="evenodd" d="M133.198 2698.65V2698.65L132.564 2701.97L131.9 2705.27L131.207 2708.56L130.485 2711.84L129.734 2715.1L128.955 2718.35L128.147 2721.58L127.312 2724.8L126.448 2728L125.557 2731.19L124.638 2734.37L123.692 2737.53L122.719 2740.67L121.719 2743.8L120.693 2746.91L119.64 2750.01L118.561 2753.09L117.457 2756.15L116.326 2759.2L115.171 2762.23L113.989 2765.25L112.783 2768.25L111.552 2771.23L110.295 2774.19L109.014 2777.14L107.709 2780.07L106.379 2782.99L105.025 2785.88L103.646 2788.76L102.244 2791.62L100.817 2794.47L99.3663 2797.29L97.8918 2800.1L96.3934 2802.88L94.8712 2805.65L93.3253 2808.4L91.7557 2811.14L90.1624 2813.85L88.5455 2816.54L86.9049 2819.21L85.2407 2821.87L83.5528 2824.5L81.8413 2827.11L80.1063 2829.7L78.3476 2832.27L76.5653 2834.82L74.7594 2837.34L72.9299 2839.85L71.0768 2842.33L69.2002 2844.78L67.3001 2847.22L65.3764 2849.63L63.4292 2852.02L61.4586 2854.38L59.4646 2856.72L57.4473 2859.03L55.4068 2861.32L53.3431 2863.58L51.2563 2865.81L49.1465 2868.02L47.014 2870.2L44.8587 2872.35L42.681 2874.48L40.4808 2876.57L38.2585 2878.64L36.0142 2880.68L33.7482 2882.69L31.4606 2884.67L29.1518 2886.61L26.8219 2888.53L24.4714 2890.41L22.1004 2892.27L19.7094 2894.09L17.2986 2895.87L14.8684 2897.63L12.4192 2899.35L9.95132 2901.04L7.46521 2902.69L4.96127 2904.31L2.43994 2905.9L-0.0983582 2907.45L-2.65314 2908.96L-5.22391 2910.44L-7.81024 2911.89L-10.4116 2913.29L-13.0275 2914.67L-15.6574 2916L-18.3008 2917.3L-20.9571 2918.56L-23.6258 2919.79L-26.3064 2920.98L-28.9983 2922.13L-31.7008 2923.24L-34.4135 2924.32L-37.1358 2925.36L-39.8671 2926.36L-42.6068 2927.32L-45.3543 2928.25L-48.109 2929.14L-50.8704 2929.99L-53.6378 2930.8L-56.4107 2931.58L-59.1885 2932.32L-61.9706 2933.02L-64.7563 2933.68L-67.5452 2934.31L-70.3367 2934.9L-73.1301 2935.45L-75.925 2935.97L-78.7206 2936.45L-81.5166 2936.89L-84.3122 2937.3L-87.1071 2937.67L-89.9006 2938.01L-92.6921 2938.31L-95.4813 2938.57L-98.2675 2938.8L-101.05 2938.99L-103.829 2939.15L-106.603 2939.27L-109.373 2939.36L-112.136 2939.42L-114.894 2939.44L-117.646 2939.43L-120.391 2939.38L-123.128 2939.3L-125.858 2939.19L-128.579 2939.05L-131.292 2938.87L-133.996 2938.66L-136.691 2938.42L-139.375 2938.15L-142.05 2937.85L-144.714 2937.51L-147.366 2937.15L-150.008 2936.76L-152.638 2936.33L-155.256 2935.88L-157.861 2935.4L-160.454 2934.89L-163.033 2934.35L-165.599 2933.78L-168.152 2933.19L-170.691 2932.57L-173.215 2931.92L-175.725 2931.25L-178.22 2930.55L-180.7 2929.82L-183.164 2929.07L-185.614 2928.3L-188.047 2927.5L-190.465 2926.68L-192.866 2925.83L-195.252 2924.96L-197.621 2924.07L-199.973 2923.16L-202.309 2922.23L-204.628 2921.28L-206.93 2920.31L-209.215 2919.31L-211.483 2918.3L-213.735 2917.27L-215.969 2916.22L-218.186 2915.16L-220.385 2914.08L-222.568 2912.98L-224.734 2911.86L-226.882 2910.73L-229.013 2909.59L-231.128 2908.43L-233.225 2907.25L-235.305 2906.06L-237.369 2904.86L-239.416 2903.64L-241.446 2902.41L-243.46 2901.17L-245.458 2899.92L-247.439 2898.66L-249.404 2897.38L-251.354 2896.1L-253.287 2894.8L-255.206 2893.49L-257.109 2892.18L-258.996 2890.86L-260.869 2889.52L-262.728 2888.18L-264.572 2886.83L-266.402 2885.47L-268.218 2884.11L-270.021 2882.74L-271.81 2881.36L-273.586 2879.98L-275.35 2878.58L-277.101 2877.19L-278.84 2875.78L-280.567 2874.37L-282.282 2872.96L-283.986 2871.54L-285.678 2870.11L-287.36 2868.68L-289.03 2867.24L-290.689 2865.8L-292.338 2864.35L-293.976 2862.89L-295.604 2861.43L-297.222 2859.96L-298.829 2858.49L-300.426 2857.01L-302.014 2855.52L-303.591 2854.03L-305.158 2852.53L-306.716 2851.03L-308.264 2849.51L-309.802 2847.99L-311.33 2846.46L-312.849 2844.93L-314.358 2843.38L-315.857 2841.83L-317.346 2840.27L-318.825 2838.71L-320.295 2837.13L-321.754 2835.55L-323.204 2833.95L-324.644 2832.35L-326.074 2830.74L-327.493 2829.12L-328.903 2827.5L-330.302 2825.86L-331.691 2824.21L-333.069 2822.56L-334.437 2820.89L-335.795 2819.21L-337.142 2817.53L-338.478 2815.83L-339.804 2814.13L-341.119 2812.41L-342.423 2810.69L-343.716 2808.95L-344.998 2807.2L-346.27 2805.45L-347.53 2803.68L-348.779 2801.9L-350.017 2800.12L-351.244 2798.32L-352.46 2796.51L-353.665 2794.69L-354.859 2792.86L-356.041 2791.02L-357.212 2789.17L-358.373 2787.3L-359.522 2785.43L-360.66 2783.55L-361.788 2781.65L-362.904 2779.75L-364.01 2777.83L-365.104 2775.91L-366.188 2773.97L-367.261 2772.02L-368.324 2770.06L-369.375 2768.09L-370.416 2766.11L-371.446 2764.11L-372.465 2762.11L-373.473 2760.09L-374.47 2758.07L-375.456 2756.03L-376.431 2753.98L-377.395 2751.92L-378.347 2749.84L-379.289 2747.76L-380.218 2745.66L-381.137 2743.55L-382.043 2741.43L-382.938 2739.29L-383.821 2737.14L-384.691 2734.98L-385.55 2732.81L-386.396 2730.63L-387.229 2728.43L-388.05 2726.22L-388.858 2723.99L-389.652 2721.76L-390.434 2719.51L-391.201 2717.24L-391.956 2714.97L-392.696 2712.68L-393.422 2710.37L-394.134 2708.06L-394.831 2705.73L-395.514 2703.38L-396.181 2701.02L-396.834 2698.65L-397.471 2696.27L-398.094 2693.87L-398.7 2691.45L-399.291 2689.03L-399.866 2686.58L-400.424 2684.13L-400.967 2681.66L-401.493 2679.17L-402.003 2676.67L-402.497 2674.16L-402.973 2671.63L-403.433 2669.09L-403.876 2666.53L-404.301 2663.96L-404.709 2661.37L-405.1 2658.77L-405.474 2656.16L-405.829 2653.52L-406.167 2650.88L-406.487 2648.22L-406.788 2645.54L-407.072 2642.85L-407.336 2640.14L-407.582 2637.42L-407.81 2634.68L-408.018 2631.92L-408.207 2629.15L-408.376 2626.37L-408.526 2623.56L-408.656 2620.75L-408.766 2617.91L-408.855 2615.06L-408.923 2612.19L-408.97 2609.31L-408.996 2606.41L-409 2603.49L-408.982 2600.56L-408.941 2597.61L-408.877 2594.65L-408.79 2591.66L-408.679 2588.66L-408.544 2585.65L-408.384 2582.62L-408.198 2579.57L-407.986 2576.51L-407.748 2573.43L-407.483 2570.33L-407.19 2567.22L-406.869 2564.09L-406.518 2560.95L-406.138 2557.8L-405.727 2554.62L-405.285 2551.44L-404.811 2548.24L-404.304 2545.03L-403.764 2541.81L-403.189 2538.57L-402.579 2535.32L-401.932 2532.06L-401.249 2528.79L-400.528 2525.51L-399.769 2522.23L-398.97 2518.93L-398.132 2515.63L-397.252 2512.32L-396.331 2509L-395.368 2505.68L-394.362 2502.36L-393.312 2499.03L-392.218 2495.7L-391.079 2492.37L-389.894 2489.04L-388.663 2485.71L-387.385 2482.39L-386.06 2479.06L-384.687 2475.75L-383.266 2472.43L-381.795 2469.13L-380.276 2465.83L-378.706 2462.54L-377.087 2459.26L-375.417 2455.99L-373.696 2452.74L-371.924 2449.5L-370.101 2446.27L-368.226 2443.07L-366.3 2439.88L-364.321 2436.71L-362.291 2433.56L-360.208 2430.43L-358.074 2427.33L-355.887 2424.25L-353.649 2421.2L-351.358 2418.18L-349.016 2415.18L-346.623 2412.22L-344.178 2409.28L-341.682 2406.38L-339.136 2403.52L-336.539 2400.69L-333.893 2397.89L-331.198 2395.14L-328.454 2392.42L-325.661 2389.74L-322.822 2387.1L-319.935 2384.5L-317.002 2381.95L-314.024 2379.44L-311.001 2376.97L-307.933 2374.55L-304.823 2372.18L-301.67 2369.85L-298.475 2367.57L-295.239 2365.34L-291.964 2363.16L-288.649 2361.02L-285.296 2358.94L-281.906 2356.91L-278.479 2354.93L-275.017 2353L-271.52 2351.13L-267.99 2349.31L-264.427 2347.54L-260.832 2345.83L-257.207 2344.17L-253.552 2342.56L-249.868 2341.01L-246.157 2339.52L-242.418 2338.08L-238.654 2336.7L-234.865 2335.38L-231.053 2334.11L-227.217 2332.9L-223.359 2331.75L-219.481 2330.65L-215.583 2329.61L-211.666 2328.64L-207.731 2327.71L-203.779 2326.85L-199.811 2326.05L-195.828 2325.3L-191.831 2324.62L-187.822 2323.99L-183.8 2323.42L-179.767 2322.91L-175.725 2322.46L-171.673 2322.07L-167.613 2321.74L-163.546 2321.47L-159.474 2321.26L-155.396 2321.12L-151.314 2321.03L-147.229 2321L-143.142 2321.03L-139.054 2321.13L-134.967 2321.28L-130.88 2321.5L-126.796 2321.78L-122.715 2322.12L-118.638 2322.52L-114.567 2322.99L-110.501 2323.51L-106.444 2324.1L-102.395 2324.74L-98.3551 2325.45L-94.326 2326.22L-90.3085 2327.05L-86.3036 2327.94L-82.3124 2328.9L-78.3358 2329.91L-74.3749 2330.98L-70.4306 2332.11L-66.504 2333.3L-62.5959 2334.55L-58.7073 2335.86L-54.8392 2337.22L-50.9925 2338.64L-47.1682 2340.12L-43.367 2341.66L-39.5899 2343.25L-35.8377 2344.89L-32.1114 2346.59L-28.4116 2348.35L-24.7392 2350.16L-21.095 2352.02L-17.4798 2353.93L-13.8943 2355.89L-10.3391 2357.91L-6.81516 2359.97L-3.323 2362.09L0.136719 2364.25L3.56326 2366.46L6.95609 2368.72L10.3145 2371.02L13.6379 2373.37L16.9258 2375.76L20.1774 2378.2L23.3924 2380.68L26.5701 2383.2L29.71 2385.76L32.8115 2388.37L35.8742 2391.01L38.8976 2393.69L41.8811 2396.42L44.8243 2399.18L47.7268 2401.97L50.588 2404.81L53.4077 2407.68L56.1852 2410.58L58.9203 2413.52L61.6125 2416.49L64.2614 2419.49L66.8667 2422.53L69.4279 2425.6L71.9449 2428.69L74.4171 2431.82L76.8442 2434.97L79.226 2438.16L81.5621 2441.37L83.8523 2444.6L86.0963 2447.86L88.2939 2451.15L90.4446 2454.46L92.5485 2457.79L94.6052 2461.15L96.6146 2464.53L98.5764 2467.93L100.491 2471.35L102.357 2474.78L104.175 2478.24L105.946 2481.72L107.668 2485.21L109.342 2488.71L110.968 2492.24L112.546 2495.77L114.076 2499.33L115.557 2502.89L116.99 2506.46L118.376 2510.05L119.714 2513.65L121.004 2517.26L122.246 2520.87L123.442 2524.5L124.59 2528.13L125.692 2531.76L126.747 2535.41L127.757 2539.05L128.721 2542.7L129.639 2546.36L130.513 2550.01L131.343 2553.67L132.129 2557.33L132.872 2560.99L133.572 2564.65L134.23 2568.31L134.847 2571.96L135.422 2575.62L135.958 2579.27L136.453 2582.91L136.908 2586.55L137.325 2590.19L137.703 2593.82L138.044 2597.45L138.347 2601.07L138.613 2604.68L138.843 2608.29L139.036 2611.89L139.195 2615.48L139.318 2619.06L139.406 2622.64L139.46 2626.2L139.481 2629.76L139.467 2633.31L139.421 2636.85L139.342 2640.38L139.23 2643.89L139.086 2647.4L138.91 2650.9L138.703 2654.39L138.464 2657.86L138.193 2661.33L137.892 2664.78L137.56 2668.22L137.196 2671.65L136.803 2675.07L136.378 2678.48L135.924 2681.87L135.439 2685.25L134.924 2688.62L134.378 2691.98L133.803 2695.32L133.198 2698.65" fill="#F1D302"/>
</g>
</svg>
